HIERARCHY
ROOT joint_Root
{
	OFFSET 0.0 0.0 0.0
	CHANNELS 6 Xposition Yposition Zposition Zrotation Xrotation Yrotation 
	JOINT Hips
	{
		OFFSET 4.5925 91.4895 -427.239
		CHANNELS 6 Xposition Yposition Zposition Zrotation Xrotation Yrotation 
		JOINT Spine
		{
			OFFSET 15.7357 0.0 0.0
			CHANNELS 6 Xposition Yposition Zposition Zrotation Xrotation Yrotation 
			JOINT Chest
			{
				OFFSET 8.98455 -0.406207 0.0
				CHANNELS 6 Xposition Yposition Zposition Zrotation Xrotation Yrotation 
				JOINT Neck
				{
					OFFSET 16.3773 0.0 0.0
					CHANNELS 6 Xposition Yposition Zposition Zrotation Xrotation Yrotation 
					JOINT Head
					{
						OFFSET 6.45672 0.0 0.0
						CHANNELS 6 Xposition Yposition Zposition Zrotation Xrotation Yrotation 
						End Site
						{
							OFFSET 0.0 0.0 0.0
						}
					}
				}
				JOINT Shoulder_L
				{
					OFFSET 12.9942 -0.242716 4.98039
					CHANNELS 6 Xposition Yposition Zposition Zrotation Xrotation Yrotation 
					JOINT UpperArm_L
					{
						OFFSET 5.34809 0.0 0.0
						CHANNELS 6 Xposition Yposition Zposition Zrotation Xrotation Yrotation 
						JOINT LowerArm_L
						{
							OFFSET 24.3286 1.87007e-05 0.0
							CHANNELS 6 Xposition Yposition Zposition Zrotation Xrotation Yrotation 
							JOINT Hand_L
							{
								OFFSET 22.2916 0.0 0.0
								CHANNELS 6 Xposition Yposition Zposition Zrotation Xrotation Yrotation 
								End Site
								{
									OFFSET 0.0 0.0 0.0
								}
							}
						}
					}
				}
				JOINT Shoulder_R
				{
					OFFSET 12.9945 -0.242716 -4.98039
					CHANNELS 6 Xposition Yposition Zposition Zrotation Xrotation Yrotation 
					JOINT UpperArm_R
					{
						OFFSET -5.34813 0.0 0.0
						CHANNELS 6 Xposition Yposition Zposition Zrotation Xrotation Yrotation 
						JOINT LowerArm_R
						{
							OFFSET -24.3289 0.000322201 0.0
							CHANNELS 6 Xposition Yposition Zposition Zrotation Xrotation Yrotation 
							JOINT Hand_R
							{
								OFFSET -22.2915 -0.000108084 0.0
								CHANNELS 6 Xposition Yposition Zposition Zrotation Xrotation Yrotation 
								End Site
								{
									OFFSET 0.0 0.0 0.0
								}
							}
						}
					}
				}
			}
		}
		JOINT UpperLeg_L
		{
			OFFSET -2.19248 -6.46944 0.0
			CHANNELS 6 Xposition Yposition Zposition Zrotation Xrotation Yrotation 
			JOINT LowerLeg_L
			{
				OFFSET 39.0811 0.0 -1.23785e-05
				CHANNELS 6 Xposition Yposition Zposition Zrotation Xrotation Yrotation 
				JOINT Foot_L
				{
					OFFSET 40.9854 0.0 -1.26872e-05
					CHANNELS 6 Xposition Yposition Zposition Zrotation Xrotation Yrotation 
					JOINT Toes_L
					{
						OFFSET 11.7543 0.0 0.0
						CHANNELS 6 Xposition Yposition Zposition Zrotation Xrotation Yrotation 
						End Site
						{
							OFFSET 0.0 0.0 0.0
						}
					}
				}
			}
		}
		JOINT UpperLeg_R
		{
			OFFSET -2.19251 6.46944 0.0
			CHANNELS 6 Xposition Yposition Zposition Zrotation Xrotation Yrotation 
			JOINT LowerLeg_R
			{
				OFFSET -39.0811 -0.00228153 -0.0401928
				CHANNELS 6 Xposition Yposition Zposition Zrotation Xrotation Yrotation 
				JOINT Foot_R
				{
					OFFSET -40.9854 0.0 0.0
					CHANNELS 6 Xposition Yposition Zposition Zrotation Xrotation Yrotation 
					JOINT Toes_R
					{
						OFFSET -11.7543 0.0 0.0
						CHANNELS 6 Xposition Yposition Zposition Zrotation Xrotation Yrotation 
						End Site
						{
							OFFSET 0.0 0.0 0.0
						}
					}
				}
			}
		}
	}
}
MOTION
Frames:	4
Frame Time:	0.0333333
0.000000 0.000000 0.000000 0.000000 0.000000 -0.000000 130.944000 88.551900 145.766000 -82.719700 32.031100 177.303000 15.735700 0.000005 -0.000001 86.694800 83.169300 -85.139500 8.984550 -0.406207 -0.000000 5.886010 -0.811091 3.148760 16.377300 -0.000001 -0.000001 -2.119290 -0.910329 3.661450 6.456720 -0.000001 -0.000000 -9.927810 1.028650 8.012830 12.994200 -0.242716 4.980390 -90.658900 2.670020 -76.132900 5.348090 -0.000007 -0.000001 -62.029900 46.148600 -31.985400 24.328600 0.000019 0.000005 8.639880 31.268000 -16.331400 22.291600 -0.000001 0.000005 6.831630 5.157420 3.769230 12.994500 -0.242716 -4.980390 88.470800 10.565400 -81.717000 -5.348130 -0.000001 -0.000004 -58.989400 20.468600 -10.970300 -24.328900 0.000322 -0.000009 0.892451 4.106300 -12.289400 -22.291500 -0.000108 -0.000004 18.829800 5.322660 -0.572277 -2.192480 -6.469440 -0.000000 -178.574000 -5.632240 -19.128700 39.081100 -0.000007 -0.000012 0.033335 -0.010850 71.960300 40.985400 -0.000006 -0.000013 6.600190 -2.626820 -54.770400 11.754300 -0.000000 0.000003 -0.007226 -0.081604 -19.899100 -2.192510 6.469440 -0.000001 178.450000 15.015600 170.519000 -39.081100 -0.002282 -0.040193 0.002827 0.000512 41.214700 -40.985400 0.000008 0.000006 3.407770 11.012600 -71.455000 -11.754300 -0.000006 -0.000006 -0.013092 -0.125447 -21.688600
0.000000 0.000000 0.000000 0.000000 0.000000 -0.000000 132.263000 89.947700 143.248000 -83.350500 32.886600 177.002000 15.735700 0.000005 -0.000001 90.171500 83.277900 -88.934300 8.984550 -0.406207 -0.000000 5.679140 0.017627 2.470530 16.377300 -0.000001 -0.000001 -2.439810 -0.540988 3.783450 6.456720 -0.000001 -0.000000 -10.341500 1.031640 7.575310 12.994200 -0.242716 4.980390 -90.605400 2.323610 -75.392600 5.348090 -0.000007 -0.000001 -64.433000 38.990600 -25.363300 24.328600 0.000019 0.000005 5.810910 37.189300 -9.558450 22.291600 -0.000001 0.000005 6.362860 5.094880 5.230590 12.994500 -0.242716 -4.980390 88.785200 9.476400 -82.661200 -5.348130 -0.000001 -0.000004 -56.083400 18.377400 -17.804800 -24.328900 0.000322 -0.000009 0.932204 3.648770 -14.360200 -22.291500 -0.000108 -0.000004 18.283600 5.323840 -0.607807 -2.192480 -6.469440 -0.000000 179.359000 -8.607660 -22.383400 39.081100 -0.000007 -0.000012 0.033037 -0.014500 66.294100 40.985400 -0.000006 -0.000013 6.527720 -0.267297 -58.122800 11.754300 -0.000000 0.000003 -0.007222 -0.081567 -19.897500 -2.192510 6.469440 -0.000001 177.124000 15.606700 172.834000 -39.081100 -0.002282 -0.040193 0.010076 -0.008655 38.124900 -40.985400 0.000008 0.000006 3.279040 12.998900 -66.927700 -11.754300 -0.000006 -0.000006 -0.030618 -0.220283 -25.599000
0.000000 0.000000 0.000000 0.000000 0.000000 -0.000000 133.502000 91.043800 140.717000 -83.761900 33.981500 176.488000 15.735700 0.000005 -0.000001 93.713600 83.350800 -92.738800 8.984550 -0.406207 -0.000000 5.498540 0.840046 1.907160 16.377300 -0.000001 -0.000001 -2.874980 -0.216489 3.608510 6.456720 -0.000001 -0.000000 -11.006300 0.981061 6.803450 12.994200 -0.242716 4.980390 -90.563600 2.045390 -74.590500 5.348090 -0.000007 -0.000001 -64.354000 30.993400 -19.488600 24.328600 0.000019 0.000005 3.688980 36.790900 -6.144160 22.291600 -0.000001 0.000005 7.410860 5.033290 6.601700 12.994500 -0.242716 -4.980390 89.001100 8.532360 -83.297700 -5.348130 -0.000001 -0.000004 -52.943400 16.502700 -24.424700 -24.328900 0.000322 -0.000009 0.717980 2.333610 -17.146600 -22.291500 -0.000108 -0.000004 17.110600 5.339670 -1.071960 -2.192480 -6.469440 -0.000000 177.493000 -11.134900 -24.830900 39.081100 -0.000007 -0.000012 0.028778 -0.018100 57.825600 40.985400 -0.000006 -0.000013 5.235960 0.246873 -60.478300 11.754300 -0.000000 0.000003 -0.006646 -0.076601 -19.694900 -2.192510 6.469440 -0.000001 175.979000 16.113000 174.825000 -39.081100 -0.002282 -0.040193 0.024457 -0.029856 35.335600 -40.985400 0.000008 0.000006 3.792030 14.872700 -62.811100 -11.754300 -0.000006 -0.000006 -0.055779 -0.317800 -29.682700
0.000000 0.000000 0.000000 0.000000 0.000000 -0.000000 134.788000 91.605400 138.213000 -83.702800 35.033100 175.636000 15.735700 0.000005 -0.000001 96.965000 83.395300 -96.128600 8.984550 -0.406207 -0.000000 5.336500 1.580540 1.597440 16.377300 -0.000001 -0.000001 -3.396200 0.069886 3.292890 6.456720 -0.000001 -0.000000 -11.870100 0.893668 5.910460 12.994200 -0.242716 4.980390 -90.580000 2.016150 -73.947400 5.348090 -0.000007 -0.000001 -62.572300 21.902200 -13.571600 24.328600 0.000019 0.000005 4.263050 35.555500 -7.305120 22.291600 -0.000001 0.000005 8.149840 5.017690 6.941480 12.994500 -0.242716 -4.980390 89.139100 7.789190 -83.673000 -5.348130 -0.000001 -0.000004 -49.438800 14.784000 -30.513400 -24.328900 0.000322 -0.000009 0.266399 0.700237 -20.962700 -22.291500 -0.000108 -0.000004 16.370900 5.356550 -1.575230 -2.192480 -6.469440 -0.000000 176.098000 -13.711300 -26.529800 39.081100 -0.000007 -0.000012 0.022441 -0.020804 47.162400 40.985400 -0.000006 -0.000013 4.857300 -0.132199 -61.854800 11.754300 -0.000000 0.000003 -0.006434 -0.074734 -19.618700 -2.192510 6.469440 -0.000001 175.215000 16.361000 176.280000 -39.081100 -0.002282 -0.040193 0.035792 -0.048944 33.583000 -40.985400 0.000008 0.000006 3.962360 16.627300 -59.823900 -11.754300 -0.000006 -0.000006 -0.082612 -0.399186 -33.157400
